<svg width="1000" height="1000" viewBox="0 0 1000 1000" fill="none" xmlns="http://www.w3.org/2000/svg">
<rect width="1000" height="1000" rx="150" fill="white"/>
<path d="M150.71 490.704C150.71 444.496 159.426 401.471 176.857 361.627C194.289 321.507 219.468 286.782 252.395 257.452C285.598 227.846 325.995 204.604 373.586 187.726C421.454 170.847 475.547 162.408 535.866 162.408C588.715 162.408 637.136 167.804 681.13 178.595C725.401 189.109 766.49 205.296 804.396 227.154L743.801 326.764C732.456 319.293 719.313 312.652 704.372 306.842C689.707 301.031 673.936 296.189 657.058 292.315C640.456 288.165 623.163 284.983 605.178 282.77C587.469 280.556 569.899 279.449 552.468 279.449C510.41 279.449 472.919 284.706 439.992 295.221C407.066 305.458 379.258 319.985 356.569 338.8C334.157 357.338 317.002 379.612 305.104 405.621C293.483 431.354 287.673 459.715 287.673 490.704C287.673 522.8 293.76 552.268 305.935 579.107C318.109 605.947 335.679 629.189 358.645 648.834C381.887 668.202 410.109 683.421 443.312 694.488C476.792 705.279 514.561 710.675 556.618 710.675C575.71 710.675 594.663 709.291 613.479 706.524C632.294 703.757 650.417 700.022 667.849 695.318C685.557 690.338 702.574 684.527 718.898 677.887C735.223 670.969 750.441 663.499 764.553 655.475L825.148 755.084C789.732 777.773 748.781 795.619 702.297 808.624C655.812 821.352 606.423 827.716 554.128 827.716C487.445 827.716 428.924 819.138 378.566 801.983C328.208 784.552 286.151 760.756 252.395 730.597C218.638 700.16 193.182 664.467 176.027 623.517C159.149 582.289 150.71 538.019 150.71 490.704Z" fill="#171717"/>
</svg>
